<svg preserveAspectRatio="none" width="100%" height="100%" overflow="visible" style="display: block;" viewBox="0 0 85 67" fill="none" xmlns="http://www.w3.org/2000/svg">
<path id="Lgo" d="M42.6113 0C46.4844 0.000134828 49.6355 3.08946 49.6357 6.88672C49.6357 9.03846 48.6226 10.9617 47.041 12.2256L50.7559 20.4297C51.7817 20.1546 52.8561 19.9951 53.9697 19.9951C58.1163 19.9952 61.7813 22.0366 63.9893 25.1436L70.6816 21.9268C70.5984 21.5035 70.5508 21.0678 70.5508 20.6211C70.5508 16.8236 73.7029 13.7334 77.5762 13.7334C81.4492 13.7336 84.6006 16.8237 84.6006 20.6211C84.6005 24.4184 81.4492 27.5076 77.5762 27.5078C75.4774 27.5078 73.5949 26.5965 72.3066 25.1611L65.6172 28.376C65.9817 29.5101 66.1797 30.7162 66.1797 31.9668C66.1795 35.7467 64.3786 39.117 61.5791 41.3125L67.7422 51.8096C68.3133 51.6621 68.9097 51.5762 69.5273 51.5762C73.4005 51.5763 76.5518 54.6655 76.5518 58.4629C76.5517 62.2602 73.4004 65.3494 69.5273 65.3496C65.6541 65.3496 62.503 62.2604 62.5029 58.4629C62.5029 56.5688 63.2873 54.8508 64.5537 53.6045L58.3926 43.1123C57.0191 43.6382 55.5308 43.9375 53.9697 43.9375C51.7793 43.9375 49.7265 43.3615 47.9473 42.3672L37.2939 55.6172C38.163 56.7635 38.6836 58.1781 38.6836 59.7129C38.6836 63.5103 35.5332 66.5994 31.6602 66.5996C27.7869 66.5996 24.6357 63.5104 24.6357 59.7129C24.6358 55.9154 27.7869 52.8262 31.6602 52.8262C32.6366 52.8262 33.5665 53.0233 34.4121 53.3779L45.0645 40.1299C43.0215 37.9889 41.7599 35.123 41.7598 31.9668C41.7598 27.7392 44.0123 24.0241 47.3965 21.8936L43.6787 13.6855C43.3297 13.7381 42.9751 13.7744 42.6113 13.7744C38.7381 13.7744 35.5869 10.6842 35.5869 6.88672C35.5871 3.08938 38.7382 0 42.6113 0ZM31.6602 56.4307C29.8144 56.4307 28.3125 57.9032 28.3125 59.7129C28.3125 61.5225 29.8144 62.9951 31.6602 62.9951C33.5054 62.9949 35.0068 61.5224 35.0068 59.7129C35.0068 57.9034 33.5054 56.4309 31.6602 56.4307ZM69.5273 55.1807C67.6819 55.1807 66.1797 56.6532 66.1797 58.4629C66.1797 60.2725 67.6819 61.7451 69.5273 61.7451C71.3729 61.7449 72.874 60.2724 72.874 58.4629C72.874 56.6533 71.3729 55.1808 69.5273 55.1807ZM14.4785 23.6045H4.54785V29.1123H14.4785V33.374H4.54785V39.0127H14.4785V43.2744H0V19.3428H14.4785V23.6045ZM32.9678 23.4082L22.168 39.0127H32.9678V43.2744H16.8184V39.1768L27.6182 23.6045H17.1855V19.3428H32.9678V23.4082ZM53.9697 23.6006C49.2647 23.6006 45.4365 27.3538 45.4365 31.9668C45.4368 36.5798 49.2649 40.333 53.9697 40.333C58.6748 40.3329 62.5027 36.5798 62.5029 31.9668C62.5029 27.3539 58.6749 23.6007 53.9697 23.6006ZM77.5762 17.3389C75.7304 17.3389 74.2285 18.8114 74.2285 20.6211C74.2286 22.4307 75.7305 23.9023 77.5762 23.9023C79.4217 23.9021 80.9227 22.4305 80.9229 20.6211C80.9229 18.8116 79.4217 17.3391 77.5762 17.3389ZM42.6113 3.60547C40.7657 3.60547 39.2639 5.07723 39.2637 6.88672C39.2637 8.69637 40.7656 10.1689 42.6113 10.1689C44.457 10.1688 45.958 8.69629 45.958 6.88672C45.9578 5.07732 44.4568 3.6056 42.6113 3.60547Z" fill="var(--fill-0, white)"/>
</svg>
