<svg preserveAspectRatio="none" width="100%" height="100%" overflow="visible" style="display: block;" viewBox="0 0 20 20" fill="none" xmlns="http://www.w3.org/2000/svg">
<g id="ic_tag">
<g id="Vector">
<path d="M7.08108 6.30661C7.50364 6.307 7.84679 6.64979 7.84679 7.07259C7.84679 7.49539 7.50364 7.83818 7.08108 7.83857H7.07435C6.65145 7.83857 6.30863 7.49563 6.30863 7.07259C6.30863 6.64955 6.65145 6.30661 7.07435 6.30661H7.08108Z" fill="var(--fill-0, #252525)"/>
<path fill-rule="evenodd" clip-rule="evenodd" d="M10.3399 3.50748C10.4132 3.52226 10.4813 3.55855 10.535 3.6122L16.0177 9.09601C16.3265 9.40687 16.4999 9.8277 16.5 10.2659C16.5 10.7041 16.3264 11.1249 16.0177 11.4358L16.0169 11.4373L11.4413 16.0138C11.2874 16.1679 11.1041 16.2901 10.9029 16.3736C10.7017 16.457 10.4859 16.4999 10.2681 16.5C10.0502 16.5 9.83379 16.457 9.63247 16.3736C9.4814 16.3109 9.34038 16.2265 9.21447 16.123L9.09408 16.0138L3.61291 10.5375C3.54102 10.4656 3.5 10.3676 3.5 10.2659V3.88299C3.5 3.67147 3.67216 3.5 3.88361 3.5H10.2643L10.3399 3.50748ZM4.26647 10.1066L9.63546 15.4722L9.70052 15.5313C9.76825 15.5869 9.84435 15.6322 9.9256 15.6659C10.034 15.7108 10.1508 15.734 10.2681 15.734C10.3852 15.7339 10.5016 15.7108 10.6098 15.6659C10.7181 15.621 10.8171 15.5552 10.8999 15.4722L15.4748 10.895C15.6406 10.7277 15.7343 10.5015 15.7343 10.2659C15.7342 10.0303 15.6407 9.80413 15.4748 9.63683L10.1058 4.26598H4.26647V10.1066Z" fill="var(--fill-0, #252525)"/>
<path d="M7.08108 6.30661C7.50364 6.307 7.84679 6.64979 7.84679 7.07259C7.84679 7.49539 7.50364 7.83818 7.08108 7.83857H7.07435C6.65145 7.83857 6.30863 7.49563 6.30863 7.07259C6.30863 6.64955 6.65145 6.30661 7.07435 6.30661H7.08108Z" stroke="var(--stroke-0, #252525)" stroke-width="0.5" stroke-linecap="round" stroke-linejoin="round"/>
<path fill-rule="evenodd" clip-rule="evenodd" d="M10.3399 3.50748C10.4132 3.52226 10.4813 3.55855 10.535 3.6122L16.0177 9.09601C16.3265 9.40687 16.4999 9.8277 16.5 10.2659C16.5 10.7041 16.3264 11.1249 16.0177 11.4358L16.0169 11.4373L11.4413 16.0138C11.2874 16.1679 11.1041 16.2901 10.9029 16.3736C10.7017 16.457 10.4859 16.4999 10.2681 16.5C10.0502 16.5 9.83379 16.457 9.63247 16.3736C9.4814 16.3109 9.34038 16.2265 9.21447 16.123L9.09408 16.0138L3.61291 10.5375C3.54102 10.4656 3.5 10.3676 3.5 10.2659V3.88299C3.5 3.67147 3.67216 3.5 3.88361 3.5H10.2643L10.3399 3.50748ZM4.26647 10.1066L9.63546 15.4722L9.70052 15.5313C9.76825 15.5869 9.84435 15.6322 9.9256 15.6659C10.034 15.7108 10.1508 15.734 10.2681 15.734C10.3852 15.7339 10.5016 15.7108 10.6098 15.6659C10.7181 15.621 10.8171 15.5552 10.8999 15.4722L15.4748 10.895C15.6406 10.7277 15.7343 10.5015 15.7343 10.2659C15.7342 10.0303 15.6407 9.80413 15.4748 9.63683L10.1058 4.26598H4.26647V10.1066Z" stroke="var(--stroke-0, #252525)" stroke-width="0.5" stroke-linecap="round" stroke-linejoin="round"/>
</g>
</g>
</svg>
