<svg preserveAspectRatio="none" width="100%" height="100%" overflow="visible" style="display: block;" viewBox="0 0 16 17" fill="none" xmlns="http://www.w3.org/2000/svg">
<path id="Union" d="M2 0.353516C3.10457 0.353516 4 1.24895 4 2.35352C4 3.28514 3.3622 4.0648 2.5 4.28711V13.3535C2.5 13.6297 2.72386 13.8535 3 13.8535H8.79297L7.64648 12.707L8.35352 12L10.3535 14C10.5244 14.1709 10.5461 14.4348 10.418 14.6289L10.3535 14.707L8.35352 16.707L7.64648 16L8.79297 14.8535H3C2.17157 14.8535 1.5 14.1819 1.5 13.3535V4.28711C0.637803 4.0648 0 3.28514 0 2.35352C0 1.24895 0.895431 0.353516 2 0.353516ZM8.35352 0.707031L7.20703 1.85352H13C13.8284 1.85352 14.5 2.52509 14.5 3.35352V12.4189C15.3623 12.6412 16 13.4218 16 14.3535C16 15.4581 15.1046 16.3535 14 16.3535C12.8954 16.3535 12 15.4581 12 14.3535C12 13.4218 12.6377 12.6412 13.5 12.4189V3.35352C13.5 3.07737 13.2761 2.85352 13 2.85352H7.20703L8.35352 4L7.64648 4.70703L5.64648 2.70703L5.58203 2.62891C5.45387 2.43483 5.47562 2.17086 5.64648 2L7.64648 0L8.35352 0.707031ZM14 13.3535C13.4477 13.3535 13 13.8012 13 14.3535C13 14.9058 13.4477 15.3535 14 15.3535C14.5523 15.3535 15 14.9058 15 14.3535C15 13.8012 14.5523 13.3535 14 13.3535ZM2 1.35352C1.44772 1.35352 1 1.80123 1 2.35352C1 2.9058 1.44772 3.35352 2 3.35352C2.55228 3.35352 3 2.9058 3 2.35352C3 1.80123 2.55228 1.35352 2 1.35352Z" fill="var(--fill-0, #252525)"/>
</svg>
