<svg width="20" height="20" viewBox="0 0 20 20" fill="none" xmlns="http://www.w3.org/2000/svg">
<path d="M10.5 2.5C14.6421 2.5 18 5.85786 18 10C18 14.1421 14.6421 17.5 10.5 17.5V15.5C13.5376 15.5 16 13.0376 16 10C16 6.96243 13.5376 4.5 10.5 4.5C7.46243 4.5 5 6.96243 5 10H6.5L4.76855 12.0781C4.36876 12.5579 3.63124 12.5579 3.23145 12.0781L1.5 10H3C3 5.85786 6.35786 2.5 10.5 2.5ZM11.5 9.37891C11.5001 9.51143 11.5528 9.63871 11.6465 9.73242L13.707 11.793L12.293 13.207L10.2324 11.1465C9.76363 10.6777 9.50006 10.0419 9.5 9.37891V6.5H11.5V9.37891Z" fill="black"/>
</svg>
