<svg preserveAspectRatio="none" width="100%" height="100%" overflow="visible" style="display: block;" viewBox="0 0 82 66" fill="none" xmlns="http://www.w3.org/2000/svg">
<path id="Union" d="M41.3018 0C45.0557 0.000247883 48.1101 3.06219 48.1104 6.8252C48.1104 8.95772 47.1278 10.8637 45.5947 12.1162L49.1963 20.2461C50.1904 19.9735 51.2314 19.8154 52.3105 19.8154C56.3296 19.8154 59.8823 21.8381 62.0225 24.917L68.5088 21.7295C68.4281 21.3101 68.3828 20.8781 68.3828 20.4355C68.3829 16.6723 71.4372 13.6104 75.1914 13.6104C78.9456 13.6104 81.9999 16.6723 82 20.4355C82 24.1989 78.9456 27.2607 75.1914 27.2607C73.1571 27.2607 71.3337 26.357 70.085 24.9346L63.6006 28.1211C63.9538 29.2448 64.1455 30.4395 64.1455 31.6787C64.1455 35.4248 62.4001 38.7656 59.6865 40.9414L65.6602 51.3438C66.2135 51.1977 66.7911 51.1123 67.3896 51.1123C71.1437 51.1123 74.198 54.1734 74.1982 57.9365C74.1982 61.6999 71.1439 64.7617 67.3896 64.7617C63.6356 64.7615 60.582 61.6997 60.582 57.9365C60.5822 56.0598 61.3421 54.358 62.5693 53.123L56.5977 42.7246C55.2663 43.2458 53.8237 43.543 52.3105 43.543C50.1875 43.5429 48.1982 42.9716 46.4736 41.9863L36.1475 55.1172C36.9898 56.2532 37.4951 57.6548 37.4951 59.1758C37.4951 62.9391 34.4408 66.001 30.6865 66.001C26.9323 66.001 23.8779 62.9391 23.8779 59.1758C23.878 55.4125 26.9323 52.3506 30.6865 52.3506C31.6331 52.3506 32.5347 52.546 33.3545 52.8975L43.6787 39.7695C41.6985 37.6478 40.4756 34.8066 40.4756 31.6787C40.4757 27.4893 42.6594 23.8086 45.9395 21.6973L42.3359 13.5635C41.9978 13.6155 41.6542 13.6504 41.3018 13.6504C37.5475 13.6504 34.4932 10.5885 34.4932 6.8252C34.4934 3.06204 37.5476 0 41.3018 0ZM30.6865 55.9238C28.8975 55.9238 27.4424 57.3825 27.4424 59.1758C27.4424 60.9691 28.8975 62.4277 30.6865 62.4277C32.4753 62.4277 33.9307 60.9691 33.9307 59.1758C33.9306 57.3825 32.4753 55.9238 30.6865 55.9238ZM67.3896 54.6846C65.6012 54.6848 64.1458 56.1435 64.1455 57.9365C64.1455 59.7298 65.6011 61.1892 67.3896 61.1895C69.1787 61.1895 70.6348 59.7299 70.6348 57.9365C70.6345 56.1434 69.1785 54.6846 67.3896 54.6846ZM15.5361 23.752H4.33203V29.0889H15.5361V33.2188H4.33203V38.6826H15.5361V42.8125H0V19.6221H15.5361V23.752ZM34.8936 22.6699L22.8613 38.6826H34.8936V42.8125H17.7646V38.8418L28.9248 23.752H18.1152V19.6221H34.8936V22.6699ZM52.3105 23.3887C47.7503 23.3888 44.0402 27.1075 44.04 31.6787C44.04 36.2504 47.7502 39.9696 52.3105 39.9697C56.8712 39.9697 60.582 36.2504 60.582 31.6787C60.5819 27.1074 56.8711 23.3887 52.3105 23.3887ZM75.1914 17.1836C73.4024 17.1836 71.9474 18.6423 71.9473 20.4355C71.9473 22.2289 73.4024 23.6885 75.1914 23.6885C76.9804 23.6885 78.4355 22.2289 78.4355 20.4355C78.4354 18.6423 76.9804 17.1836 75.1914 17.1836ZM41.3018 3.57324C39.5129 3.57324 38.0568 5.032 38.0566 6.8252C38.0566 8.61856 39.5127 10.0781 41.3018 10.0781C43.0906 10.0779 44.5459 8.61841 44.5459 6.8252C44.5457 5.03216 43.0905 3.57349 41.3018 3.57324Z" fill="var(--fill-0, black)"/>
</svg>
