<svg preserveAspectRatio="none" width="100%" height="100%" overflow="visible" style="display: block;" viewBox="0 0 28 28" fill="none" xmlns="http://www.w3.org/2000/svg">
<path id="Union" d="M14 0C21.732 0 28 6.26801 28 14C28 21.732 21.732 28 14 28C6.26801 28 0 21.732 0 14C0 6.26801 6.26801 0 14 0ZM14 3C7.92487 3 3 7.92487 3 14C3 20.0751 7.92487 25 14 25C20.0751 25 25 20.0751 25 14C25 7.92487 20.0751 3 14 3ZM15.5 21.5H12.5V11.5H15.5V21.5ZM14 6.5C14.8284 6.5 15.5 7.17157 15.5 8C15.5 8.82843 14.8284 9.5 14 9.5C13.1716 9.5 12.5 8.82843 12.5 8C12.5 7.17157 13.1716 6.5 14 6.5Z" fill="var(--fill-0, #989BA2)"/>
</svg>
