<svg width="20" height="20" viewBox="0 0 20 20" fill="none" xmlns="http://www.w3.org/2000/svg">
<path d="M10 2.5C14.1421 2.5 17.5 5.85786 17.5 10C17.5 14.1421 14.1421 17.5 10 17.5C5.85786 17.5 2.5 14.1421 2.5 10C2.5 5.85786 5.85786 2.5 10 2.5ZM10 12.9004C8.32433 12.9005 6.86732 13.8374 6.12402 15.2178C7.20629 16.023 8.54734 16.5 10 16.5C11.4519 16.5 12.7921 16.0232 13.874 15.2188C13.1308 13.8384 11.6756 12.9005 10 12.9004ZM10 3.5C6.41015 3.5 3.5 6.41015 3.5 10C3.5 11.7698 4.20806 13.3738 5.35547 14.5459C6.29611 12.9629 8.02327 11.9005 10 11.9004C11.9765 11.9005 13.7028 12.9632 14.6436 14.5459C15.7912 13.3737 16.5 11.7701 16.5 10C16.5 6.41015 13.5899 3.5 10 3.5ZM10 6C11.3807 6 12.5 7.11929 12.5 8.5C12.5 9.88071 11.3807 11 10 11C8.61929 11 7.5 9.88071 7.5 8.5C7.5 7.11929 8.61929 6 10 6ZM10 7C9.17157 7 8.5 7.67157 8.5 8.5C8.5 9.32843 9.17157 10 10 10C10.8284 10 11.5 9.32843 11.5 8.5C11.5 7.67157 10.8284 7 10 7Z" fill="#252525"/>
</svg>
