<svg width="20" height="20" viewBox="0 0 20 20" fill="none" xmlns="http://www.w3.org/2000/svg">
<mask id="path-1-inside-1_2224_4602" fill="white">
<path d="M12 2C12.2761 2 12.5 2.22386 12.5 2.5V3.46094C12.6199 3.50679 12.7379 3.55625 12.8545 3.6084L13.5352 2.92871C13.7303 2.73353 14.0469 2.73369 14.2422 2.92871L17.0713 5.75684C17.2664 5.95197 17.2662 6.26858 17.0713 6.46387L16.3906 7.14453C16.443 7.26151 16.4931 7.37973 16.5391 7.5H17.5C17.7761 7.5 18 7.72386 18 8V12C17.9999 12.2761 17.7761 12.5 17.5 12.5H16.5381C16.4922 12.6199 16.4428 12.7379 16.3906 12.8545L17.0713 13.5352C17.2665 13.7303 17.2663 14.0469 17.0713 14.2422L14.2432 17.0713C14.0479 17.2666 13.7304 17.2666 13.5352 17.0713L12.8545 16.3906C12.7379 16.4428 12.6199 16.4922 12.5 16.5381V17.5C12.4999 17.7761 12.2761 18 12 18H8C7.7239 18 7.50007 17.7761 7.5 17.5V16.5381C7.37984 16.4921 7.2614 16.4429 7.14453 16.3906L6.46484 17.0713C6.2697 17.2664 5.9531 17.2662 5.75781 17.0713L2.92871 14.2422C2.73376 14.0469 2.73357 13.7303 2.92871 13.5352L3.6084 12.8545C3.55629 12.738 3.50773 12.6198 3.46191 12.5H2.5C2.2239 12.5 2.00007 12.2761 2 12V8C2 7.72386 2.22386 7.5 2.5 7.5H3.46094C3.5069 7.37985 3.55611 7.26139 3.6084 7.14453L2.92871 6.46387C2.73377 6.26858 2.73356 5.95199 2.92871 5.75684L5.75684 2.92871C5.9521 2.73345 6.26958 2.73345 6.46484 2.92871L7.14453 3.6084C7.26139 3.55611 7.37985 3.5069 7.5 3.46094V2.5C7.5 2.22386 7.72386 2 8 2H12ZM10 7.5C8.61929 7.5 7.5 8.61929 7.5 10C7.50007 11.3807 8.61933 12.5 10 12.5C11.3807 12.5 12.4999 11.3807 12.5 10C12.5 8.61929 11.3807 7.5 10 7.5Z"/>
</mask>
<path d="M12 2V1V2ZM12.5 2.5L11.5 2.5V2.5H12.5ZM12.5 3.46094H11.5V4.14906L12.1427 4.39493L12.5 3.46094ZM12.8545 3.6084L12.4462 4.52124L13.0742 4.80217L13.5611 4.31601L12.8545 3.6084ZM13.5352 2.92871L14.2418 3.63633L14.2423 3.63582L13.5352 2.92871ZM14.2422 2.92871L14.9492 2.22148L14.9488 2.22113L14.2422 2.92871ZM17.0713 5.75684L17.7784 5.04973L17.7783 5.04961L17.0713 5.75684ZM17.0713 6.46387L17.7784 7.17097L17.7791 7.17024L17.0713 6.46387ZM16.3906 7.14453L15.6835 6.43742L15.1966 6.92439L15.4778 7.55299L16.3906 7.14453ZM16.5391 7.5L15.6051 7.85728L15.8509 8.5H16.5391V7.5ZM17.5 7.5V6.5V7.5ZM18 8H19H18ZM18 12L19 12.0002V12H18ZM17.5 12.5V13.5V12.5ZM16.5381 12.5V11.5H15.85L15.6041 12.1426L16.5381 12.5ZM16.3906 12.8545L15.4778 12.4461L15.1966 13.0747L15.6835 13.5616L16.3906 12.8545ZM17.0713 13.5352L17.7784 12.828L17.0713 13.5352ZM17.0713 14.2422L17.7785 14.9492L17.7789 14.9488L17.0713 14.2422ZM14.2432 17.0713L14.9503 17.7784L14.9504 17.7783L14.2432 17.0713ZM13.5352 17.0713L14.2423 16.3642L13.5352 17.0713ZM12.8545 16.3906L13.5616 15.6835L13.0747 15.1966L12.4461 15.4778L12.8545 16.3906ZM12.5 16.5381L12.1427 15.6041L11.5 15.85V16.5381H12.5ZM12.5 17.5L13.5 17.5002V17.5H12.5ZM12 18V17V18ZM8 18V19V18ZM7.5 17.5H6.5V17.5002L7.5 17.5ZM7.5 16.5381H8.5V15.85L7.85734 15.6041L7.5 16.5381ZM7.14453 16.3906L7.55299 15.4778L6.92391 15.1963L6.43692 15.684L7.14453 16.3906ZM6.46484 17.0713L7.17192 17.7784L7.17246 17.7779L6.46484 17.0713ZM5.75781 17.0713L5.05071 17.7784L5.05144 17.7791L5.75781 17.0713ZM2.92871 14.2422L2.22102 14.9487L2.2216 14.9493L2.92871 14.2422ZM2.92871 13.5352L3.63585 14.2422L3.63633 14.2418L2.92871 13.5352ZM3.6084 12.8545L4.31601 13.5611L4.80217 13.0742L4.52124 12.4462L3.6084 12.8545ZM3.46191 12.5L4.39588 12.1426L4.14999 11.5H3.46191V12.5ZM2.5 12.5L2.5 13.5H2.5V12.5ZM2 12H1V12.0002L2 12ZM2 8H1H2ZM2.5 7.5L2.5 8.5H2.5V7.5ZM3.46094 7.5V8.5H4.14908L4.39493 7.85728L3.46094 7.5ZM3.6084 7.14453L4.5212 7.55293L4.80222 6.92484L4.31601 6.43793L3.6084 7.14453ZM2.92871 6.46387L2.22098 7.17034L2.2211 7.17047L2.92871 6.46387ZM2.92871 5.75684L3.63582 6.46394H3.63582L2.92871 5.75684ZM5.75684 2.92871L5.04973 2.2216V2.2216L5.75684 2.92871ZM6.46484 2.92871L7.17195 2.2216V2.2216L6.46484 2.92871ZM7.14453 3.6084L6.43742 4.31551L6.92437 4.80245L7.55295 4.52119L7.14453 3.6084ZM7.5 3.46094L7.8573 4.39493L8.5 4.14906V3.46094H7.5ZM7.5 2.5L6.5 2.5V2.5H7.5ZM8 2V1H8L8 2ZM7.5 10H6.5V10L7.5 10ZM12.5 10L13.5 10V10H12.5ZM12 2V3C11.7239 3 11.5 2.77614 11.5 2.5L12.5 2.5L13.5 2.5C13.5 1.67157 12.8284 1 12 1V2ZM12.5 2.5H11.5V3.46094H12.5H13.5V2.5H12.5ZM12.5 3.46094L12.1427 4.39493C12.2431 4.43335 12.3441 4.47556 12.4462 4.52124L12.8545 3.6084L13.2628 2.69555C13.1317 2.63693 12.9966 2.58024 12.8573 2.52695L12.5 3.46094ZM12.8545 3.6084L13.5611 4.31601L14.2418 3.63633L13.5352 2.92871L12.8286 2.2211L12.1479 2.90078L12.8545 3.6084ZM13.5352 2.92871L14.2423 3.63582C14.0465 3.83163 13.7302 3.8307 13.5356 3.63629L14.2422 2.92871L14.9488 2.22113C14.3636 1.63668 13.4142 1.63543 12.828 2.2216L13.5352 2.92871ZM14.2422 2.92871L13.5352 3.63594L16.3643 6.46406L17.0713 5.75684L17.7783 5.04961L14.9492 2.22148L14.2422 2.92871ZM17.0713 5.75684L16.3642 6.46394C16.1681 6.26783 16.1695 5.95183 16.3635 5.75749L17.0713 6.46387L17.7791 7.17024C18.3628 6.58532 18.3648 5.63612 17.7784 5.04973L17.0713 5.75684ZM17.0713 6.46387L16.3642 5.75676L15.6835 6.43742L16.3906 7.14453L17.0977 7.85164L17.7784 7.17097L17.0713 6.46387ZM16.3906 7.14453L15.4778 7.55299C15.5249 7.65805 15.5673 7.75867 15.6051 7.85728L16.5391 7.5L17.4731 7.14272C17.4188 7.00078 17.3611 6.86497 17.3034 6.73608L16.3906 7.14453ZM16.5391 7.5V8.5H17.5V7.5V6.5H16.5391V7.5ZM17.5 7.5V8.5C17.2239 8.5 17 8.27614 17 8H18H19C19 7.17157 18.3284 6.5 17.5 6.5V7.5ZM18 8H17V12H18H19V8H18ZM18 12L17 11.9998C17.0001 11.724 17.2236 11.5 17.5 11.5V12.5V13.5C18.3286 13.5 18.9998 12.8282 19 12.0002L18 12ZM17.5 12.5V11.5H16.5381V12.5V13.5H17.5V12.5ZM16.5381 12.5L15.6041 12.1426C15.5656 12.2432 15.5234 12.3441 15.4778 12.4461L16.3906 12.8545L17.3034 13.2629C17.3621 13.1317 17.4188 12.9966 17.4721 12.8574L16.5381 12.5ZM16.3906 12.8545L15.6835 13.5616L16.3642 14.2423L17.0713 13.5352L17.7784 12.828L17.0977 12.1474L16.3906 12.8545ZM17.0713 13.5352L16.3642 14.2423C16.1684 14.0465 16.1693 13.7302 16.3637 13.5356L17.0713 14.2422L17.7789 14.9488C18.3633 14.3636 18.3646 13.4142 17.7784 12.828L17.0713 13.5352ZM17.0713 14.2422L16.3641 13.5352L13.5359 16.3643L14.2432 17.0713L14.9504 17.7783L17.7785 14.9492L17.0713 14.2422ZM14.2432 17.0713L13.5361 16.3642C13.7313 16.1689 14.047 16.1689 14.2423 16.3642L13.5352 17.0713L12.828 17.7784C13.4138 18.3642 14.3645 18.3642 14.9503 17.7784L14.2432 17.0713ZM13.5352 17.0713L14.2423 16.3642L13.5616 15.6835L12.8545 16.3906L12.1474 17.0977L12.828 17.7784L13.5352 17.0713ZM12.8545 16.3906L12.4461 15.4778C12.3441 15.5235 12.2432 15.5657 12.1427 15.6041L12.5 16.5381L12.8573 17.4721C12.9966 17.4188 13.1317 17.3621 13.2628 17.3035L12.8545 16.3906ZM12.5 16.5381H11.5V17.5H12.5H13.5V16.5381H12.5ZM12.5 17.5L11.5 17.4998C11.5001 17.224 11.7236 17 12 17V18V19C12.8286 19 13.4998 18.3282 13.5 17.5002L12.5 17.5ZM12 18V17H8V18V19H12V18ZM8 18V17C8.27642 17 8.49993 17.224 8.5 17.4998L7.5 17.5L6.5 17.5002C6.5002 18.3282 7.17138 19 8 19V18ZM7.5 17.5H8.5V16.5381H7.5H6.5V17.5H7.5ZM7.5 16.5381L7.85734 15.6041C7.75471 15.5648 7.65331 15.5227 7.55299 15.4778L7.14453 16.3906L6.73607 17.3034C6.86949 17.3631 7.00497 17.4194 7.14266 17.4721L7.5 16.5381ZM7.14453 16.3906L6.43692 15.684L5.75723 16.3647L6.46484 17.0713L7.17246 17.7779L7.85215 17.0972L7.14453 16.3906ZM6.46484 17.0713L5.75777 16.3642C5.95384 16.1681 6.26982 16.1695 6.46419 16.3635L5.75781 17.0713L5.05144 17.7791C5.63638 18.3629 6.58557 18.3647 7.17192 17.7784L6.46484 17.0713ZM5.75781 17.0713L6.46492 16.3642L3.63582 13.5351L2.92871 14.2422L2.2216 14.9493L5.05071 17.7784L5.75781 17.0713ZM2.92871 14.2422L3.63641 13.5357C3.83063 13.7302 3.83174 14.0463 3.63585 14.2422L2.92871 13.5352L2.22157 12.8281C1.63539 13.4143 1.63688 14.3636 2.22102 14.9487L2.92871 14.2422ZM2.92871 13.5352L3.63633 14.2418L4.31601 13.5611L3.6084 12.8545L2.90078 12.1479L2.2211 12.8286L2.92871 13.5352ZM3.6084 12.8545L4.52124 12.4462C4.47755 12.3485 4.43598 12.2474 4.39588 12.1426L3.46191 12.5L2.52795 12.8574C2.57949 12.9921 2.63503 13.1275 2.69556 13.2628L3.6084 12.8545ZM3.46191 12.5V11.5H2.5V12.5V13.5H3.46191V12.5ZM2.5 12.5L2.5 11.5C2.77642 11.5 2.99993 11.724 3 11.9998L2 12L1 12.0002C1.0002 12.8282 1.67138 13.5 2.5 13.5L2.5 12.5ZM2 12H3V8H2H1V12H2ZM2 8H3C3 8.27614 2.77614 8.5 2.5 8.5L2.5 7.5L2.5 6.5C1.67157 6.5 1 7.17157 1 8H2ZM2.5 7.5V8.5H3.46094V7.5V6.5H2.5V7.5ZM3.46094 7.5L4.39493 7.85728C4.43414 7.75478 4.47627 7.65336 4.5212 7.55293L3.6084 7.14453L2.6956 6.73613C2.63596 6.86942 2.57965 7.00493 2.52694 7.14272L3.46094 7.5ZM3.6084 7.14453L4.31601 6.43793L3.63633 5.75727L2.92871 6.46387L2.2211 7.17047L2.90078 7.85113L3.6084 7.14453ZM2.92871 6.46387L3.63645 5.75739C3.83057 5.95185 3.83181 6.26795 3.63582 6.46394L2.92871 5.75684L2.2216 5.04973C1.6353 5.63603 1.63697 6.5853 2.22098 7.17034L2.92871 6.46387ZM2.92871 5.75684L3.63582 6.46394L6.46394 3.63582L5.75684 2.92871L5.04973 2.2216L2.2216 5.04973L2.92871 5.75684ZM5.75684 2.92871L6.46394 3.63582C6.26868 3.83108 5.953 3.83108 5.75774 3.63582L6.46484 2.92871L7.17195 2.2216C6.58616 1.63582 5.63552 1.63582 5.04973 2.2216L5.75684 2.92871ZM6.46484 2.92871L5.75774 3.63582L6.43742 4.31551L7.14453 3.6084L7.85164 2.90129L7.17195 2.2216L6.46484 2.92871ZM7.14453 3.6084L7.55295 4.52119C7.65334 4.47627 7.75476 4.43415 7.8573 4.39493L7.5 3.46094L7.1427 2.52695C7.00495 2.57965 6.86944 2.63595 6.73611 2.69561L7.14453 3.6084ZM7.5 3.46094H8.5V2.5H7.5H6.5V3.46094H7.5ZM7.5 2.5L8.5 2.5C8.5 2.77614 8.27614 3 8 3L8 2L8 1C7.17157 1 6.5 1.67157 6.5 2.5L7.5 2.5ZM8 2V3H12V2V1H8V2ZM10 7.5V6.5C8.067 6.5 6.5 8.067 6.5 10H7.5H8.5C8.5 9.17157 9.17157 8.5 10 8.5V7.5ZM7.5 10L6.5 10C6.50009 11.9329 8.067 13.5 10 13.5V12.5V11.5C9.17166 11.5 8.50004 10.8284 8.5 9.99995L7.5 10ZM10 12.5V13.5C11.933 13.5 13.4999 11.9329 13.5 10L12.5 10L11.5 9.99995C11.5 10.8284 10.8283 11.5 10 11.5V12.5ZM12.5 10H13.5C13.5 8.067 11.933 6.5 10 6.5V7.5V8.5C10.8284 8.5 11.5 9.17157 11.5 10H12.5Z" fill="#252525" mask="url(#path-1-inside-1_2224_4602)"/>
</svg>
