<svg width="20" height="20" viewBox="0 0 20 20" fill="none" xmlns="http://www.w3.org/2000/svg">
<path d="M4 2C5.10457 2 6 2.89543 6 4C6 4.93162 5.3622 5.71129 4.5 5.93359V15C4.5 15.2761 4.72386 15.5 5 15.5H10.793L9.64648 14.3535L10.3535 13.6465L12.3535 15.6465C12.5244 15.8173 12.5461 16.0813 12.418 16.2754L12.3535 16.3535L10.3535 18.3535L9.64648 17.6465L10.793 16.5H5C4.17157 16.5 3.5 15.8284 3.5 15V5.93359C2.6378 5.71129 2 4.93162 2 4C2 2.89543 2.89543 2 4 2ZM10.3535 2.35352L9.20703 3.5H15C15.8284 3.5 16.5 4.17157 16.5 5V14.0654C17.3623 14.2877 18 15.0683 18 16C18 17.1046 17.1046 18 16 18C14.8954 18 14 17.1046 14 16C14 15.0683 14.6377 14.2877 15.5 14.0654V5C15.5 4.72386 15.2761 4.5 15 4.5H9.20703L10.3535 5.64648L9.64648 6.35352L7.64648 4.35352L7.58203 4.27539C7.45387 4.08131 7.47562 3.81735 7.64648 3.64648L9.64648 1.64648L10.3535 2.35352ZM16 15C15.4477 15 15 15.4477 15 16C15 16.5523 15.4477 17 16 17C16.5523 17 17 16.5523 17 16C17 15.4477 16.5523 15 16 15ZM4 3C3.44772 3 3 3.44772 3 4C3 4.55228 3.44772 5 4 5C4.55228 5 5 4.55228 5 4C5 3.44772 4.55228 3 4 3Z" fill="#252525"/>
</svg>
