<svg width="20" height="20" viewBox="0 0 20 20" fill="none" xmlns="http://www.w3.org/2000/svg">
<path d="M10.2314 2.00586C12.6092 2.12632 14.5 4.09234 14.5 6.5L14.4941 6.73145C14.4516 7.57124 14.1775 8.34939 13.7363 9.00586C16.1118 9.12876 18 11.094 18 13.5L17.9941 13.7314C17.8737 16.1092 15.9077 18 13.5 18L13.2686 17.9941C11.9487 17.9273 10.7797 17.2912 10 16.3271C9.17504 17.3472 7.91406 18 6.5 18C4.01472 18 2 15.9853 2 13.5C2 11.0943 3.88772 9.12924 6.2627 9.00586C5.82173 8.34949 5.5484 7.57105 5.50586 6.73145L5.5 6.5C5.5 4.01472 7.51472 2 10 2L10.2314 2.00586ZM13.5 11C12.1193 11 11 12.1193 11 13.5C11 14.8807 12.1193 16 13.5 16C14.8807 16 16 14.8807 16 13.5C16 12.1193 14.8807 11 13.5 11ZM6.5 11C5.11929 11 4 12.1193 4 13.5C4 14.8807 5.11929 16 6.5 16C7.88071 16 9 14.8807 9 13.5C9 12.1193 7.88071 11 6.5 11ZM10 4C8.61929 4 7.5 5.11929 7.5 6.5C7.5 7.88071 8.61929 9 10 9C11.3807 9 12.5 7.88071 12.5 6.5C12.5 5.11929 11.3807 4 10 4Z" fill="black"/>
</svg>
