<svg width="20" height="20" viewBox="0 0 20 20" fill="none" xmlns="http://www.w3.org/2000/svg">
<mask id="path-1-inside-1_2153_1132" fill="white">
<path d="M17 4C17.5523 4 18 4.44772 18 5V15C18 15.5523 17.5523 16 17 16H7.16699L4.5 18V16H3C2.44772 16 2 15.5523 2 15V5C2 4.44772 2.44772 4 3 4H17Z"/>
</mask>
<path d="M17 4V2V4ZM18 5H20V5L18 5ZM17 16V18V16ZM7.16699 16V14H6.50039L5.96709 14.3999L7.16699 16ZM4.5 18H2.5V21.9997L5.69991 19.6001L4.5 18ZM4.5 16H6.5V14H4.5V16ZM17 4V6C16.4477 6 16 5.55228 16 5L18 5L20 5C20 3.34315 18.6569 2 17 2V4ZM18 5H16V15H18H20V5H18ZM18 15H16C16 14.4477 16.4477 14 17 14V16V18C18.6569 18 20 16.6569 20 15H18ZM17 16V14H7.16699V16V18H17V16ZM7.16699 16L5.96709 14.3999L3.30009 16.3999L4.5 18L5.69991 19.6001L8.3669 17.6001L7.16699 16ZM4.5 18H6.5V16H4.5H2.5V18H4.5ZM4.5 16V14H3V16V18H4.5V16ZM3 16V14C3.55228 14 4 14.4477 4 15H2H0C0 16.6569 1.34315 18 3 18V16ZM2 15H4V5H2H0V15H2ZM2 5H4C4 5.55228 3.55228 6 3 6V4V2C1.34315 2 0 3.34315 0 5H2ZM3 4V6H17V4V2H3V4Z" fill="black" mask="url(#path-1-inside-1_2153_1132)"/>
</svg>
