<svg width="32" height="32" viewBox="0 0 32 32" fill="none" xmlns="http://www.w3.org/2000/svg">
<path d="M20.7188 5.5C21.1776 5.5 21.5782 5.81265 21.6895 6.25781L22 7.5H27.5C28.0523 7.5 28.5 7.94772 28.5 8.5V25.5C28.5 26.0523 28.0523 26.5 27.5 26.5H4.5C3.94772 26.5 3.5 26.0523 3.5 25.5V8.5C3.5 7.94772 3.94772 7.5 4.5 7.5H10L10.3105 6.25781C10.4218 5.81265 10.8224 5.5 11.2812 5.5H20.7188ZM11.9404 7.98535L11.5615 9.5H5.5V24.5H26.5V9.5H20.4385L20.0596 7.98535L19.9385 7.5H12.0615L11.9404 7.98535ZM16.2832 11.0068C19.1892 11.1542 21.5 13.5574 21.5 16.5L21.4932 16.7832C21.3458 19.6892 18.9426 22 16 22L15.7168 21.9932C12.9046 21.8505 10.6495 19.5954 10.5068 16.7832L10.5 16.5C10.5 13.4624 12.9624 11 16 11L16.2832 11.0068ZM16 13C14.067 13 12.5 14.567 12.5 16.5C12.5 18.433 14.067 20 16 20C17.933 20 19.5 18.433 19.5 16.5C19.5 14.567 17.933 13 16 13Z" fill="black"/>
</svg>
