<svg preserveAspectRatio="none" width="100%" height="100%" overflow="visible" style="display: block;" viewBox="0 0 15 15" fill="none" xmlns="http://www.w3.org/2000/svg">
<path id="Union" d="M7.40778 0C7.67838 0.000108777 7.92822 0.14609 8.0611 0.381836L10.1138 4.02441L14.2134 4.85156C14.4787 4.90517 14.6952 5.09812 14.7789 5.35547C14.8623 5.61269 14.8006 5.89555 14.6177 6.09473L11.7867 9.17285L12.2672 13.3271C12.2982 13.5958 12.182 13.8604 11.9634 14.0195C11.7445 14.1786 11.4566 14.2072 11.2105 14.0947L7.40778 12.3545L3.60504 14.0947C3.35896 14.2073 3.07107 14.1786 2.85211 14.0195C2.63337 13.8604 2.51739 13.5959 2.5484 13.3271L3.02789 9.17285L0.197817 6.09473C0.0147514 5.89554 -0.0467527 5.61279 0.0366839 5.35547C0.120402 5.09812 0.336827 4.90509 0.602114 4.85156L4.70075 4.02441L6.75446 0.381836L6.80914 0.297852C6.94969 0.111885 7.17086 0 7.40778 0Z" fill="var(--fill-0, black)"/>
</svg>
