<svg preserveAspectRatio="none" width="100%" height="100%" overflow="visible" style="display: block;" viewBox="0 0 11 16" fill="none" xmlns="http://www.w3.org/2000/svg">
<path id="Vector 39 (Stroke)" d="M3 10V4H5V10C5 10.2761 5.22386 10.5 5.5 10.5C5.77614 10.5 6 10.2761 6 10V4C6 2.89543 5.10457 2 4 2C2.89543 2 2 2.89543 2 4V10C2 11.933 3.567 13.5 5.5 13.5C7.433 13.5 9 11.933 9 10V4H11V10C11 13.0376 8.53757 15.5 5.5 15.5C2.46243 15.5 0 13.0376 0 10V4C0 1.79086 1.79086 0 4 0C6.20914 0 8 1.79086 8 4V10C8 11.3807 6.88071 12.5 5.5 12.5C4.11929 12.5 3 11.3807 3 10Z" fill="var(--fill-0, black)"/>
</svg>
