<svg preserveAspectRatio="none" width="100%" height="100%" overflow="visible" style="display: block;" viewBox="0 0 15 15" fill="none" xmlns="http://www.w3.org/2000/svg">
<path id="Union" d="M14.499 5.65723L13.4385 6.71777L12.5537 5.83301L9.6748 8.71191C10.1588 10.3299 9.76474 12.1552 8.48535 13.4346L7.77832 14.1426C7.48543 14.435 7.01054 14.4352 6.71777 14.1426L4.06543 11.4893L1.06055 14.4961L0 13.4346L3.00488 10.4287L0.354492 7.77832C0.213888 7.63772 0.134819 7.44689 0.134766 7.24805C0.134766 7.04913 0.21384 6.85843 0.354492 6.71777L1.06152 6.01074C2.34147 4.73081 4.16802 4.33768 5.78613 4.82227L8.66406 1.94336L7.78125 1.06055L8.8418 0L14.499 5.65723ZM6.5127 6.2168C6.29662 6.43281 5.97077 6.49618 5.68945 6.37695C4.50474 5.87507 3.08543 6.10794 2.12207 7.07129L1.94531 7.24805L7.24805 12.5508L7.4248 12.374C8.3882 11.4106 8.62143 9.99184 8.12012 8.80762C8.00115 8.5264 8.06438 8.20033 8.28027 7.98438L11.4922 4.77344L9.72461 3.00488L6.5127 6.2168Z" fill="var(--fill-0, black)"/>
</svg>
