<svg preserveAspectRatio="none" width="100%" height="100%" overflow="visible" style="display: block;" viewBox="0 0 20 20" fill="none" xmlns="http://www.w3.org/2000/svg">
<g id="ic_list-bulleted">
<path id="&#226;&#132;&#166;" d="M4 15.0975H6.61027C5.77644 14.4742 5.15408 13.701 4.7432 12.778C4.34441 11.855 4.14502 10.8661 4.14502 9.8112C4.14502 8.98409 4.26586 8.19295 4.50755 7.43776C4.74924 6.68257 5.11178 6.0113 5.59517 5.42393C6.09063 4.82457 6.70091 4.35708 7.42598 4.02144C8.16314 3.67381 9.02115 3.5 10 3.5C10.9789 3.5 11.8308 3.67381 12.5559 4.02144C13.2931 4.35708 13.9033 4.82457 14.3867 5.42393C14.8822 6.0113 15.2508 6.68257 15.4924 7.43776C15.7341 8.19295 15.855 8.98409 15.855 9.8112C15.855 10.8541 15.6495 11.837 15.2387 12.76C14.8399 13.683 14.2236 14.4622 13.3897 15.0975H16V16.5H11.2145V15.2953C11.8792 14.9836 12.435 14.5461 12.8822 13.9827C13.3293 13.4193 13.6616 12.778 13.8792 12.0588C14.1088 11.3396 14.2236 10.5964 14.2236 9.82918C14.2236 8.96611 14.0725 8.16897 13.7704 7.43776C13.4804 6.70655 13.0211 6.11918 12.3927 5.67566C11.7764 5.22015 10.9789 4.99239 10 4.99239C9.02115 4.99239 8.21752 5.22015 7.58912 5.67566C6.97281 6.11918 6.5136 6.70655 6.21148 7.43776C5.92145 8.16897 5.77644 8.96611 5.77644 9.82918C5.77644 10.5964 5.8852 11.3396 6.10272 12.0588C6.33233 12.778 6.67069 13.4193 7.11782 13.9827C7.56495 14.5461 8.12085 14.9836 8.7855 15.2953V16.5H4V15.0975Z" fill="var(--fill-0, #252525)"/>
</g>
</svg>
