<svg preserveAspectRatio="none" width="100%" height="100%" overflow="visible" style="display: block;" viewBox="0 0 20 20" fill="none" xmlns="http://www.w3.org/2000/svg">
<g id="ic_list-bulleted">
<g id="Vector">
<path d="M4.5 13.5C5.32843 13.5 6 14.1716 6 15C6 15.8284 5.32843 16.5 4.5 16.5C3.67157 16.5 3 15.8284 3 15C3 14.1716 3.67157 13.5 4.5 13.5Z" fill="var(--fill-0, #252525)"/>
<path d="M18.75 15.625H8V14.375H18.75V15.625Z" fill="var(--fill-0, #252525)"/>
<path d="M4.5 8.5C5.32843 8.5 6 9.17157 6 10C6 10.8284 5.32843 11.5 4.5 11.5C3.67157 11.5 3 10.8284 3 10C3 9.17157 3.67157 8.5 4.5 8.5Z" fill="var(--fill-0, #252525)"/>
<path d="M18.75 10.625H8V9.375H18.75V10.625Z" fill="var(--fill-0, #252525)"/>
<path d="M4.5 3.5C5.32843 3.5 6 4.17157 6 5C6 5.82843 5.32843 6.5 4.5 6.5C3.67157 6.5 3 5.82843 3 5C3 4.17157 3.67157 3.5 4.5 3.5Z" fill="var(--fill-0, #252525)"/>
<path d="M18.75 5.625H8V4.375H18.75V5.625Z" fill="var(--fill-0, #252525)"/>
</g>
</g>
</svg>
