<svg width="32" height="32" viewBox="0 0 32 32" fill="none" xmlns="http://www.w3.org/2000/svg">
<path d="M28.207 26.293L26.793 27.707L21.8057 22.7197C20.5147 23.9194 18.8478 24.7242 17 24.9395V28H15V24.9395C10.783 24.4483 7.5 20.8933 7.5 16.5625V15.5H9.5V16.5625C9.5 20.11 12.4022 23 16 23C17.6961 23 19.2335 22.3538 20.3887 21.3027L18.9658 19.8799C18.174 20.5759 17.1373 21 16 21C13.5923 21 11.6263 19.1092 11.5059 16.7314L11.5 16.5V12.4141L4.79297 5.70703L6.20703 4.29297L28.207 26.293ZM24.5 16.5625C24.5 17.6113 24.3049 18.6137 23.9531 19.5391L22.3496 17.9355C22.4468 17.4928 22.5 17.0337 22.5 16.5625V15.5H24.5V16.5625ZM13.5 16.5C13.5 17.8807 14.6193 19 16 19C16.585 19 17.1207 18.7967 17.5459 18.46L13.5 14.4141V16.5ZM16 4C18.4853 4 20.5 6.01472 20.5 8.5V16.0859L18.5 14.0859V8.5C18.5 7.11929 17.3807 6 16 6C14.6193 6 13.5 7.11929 13.5 8.5V9.08594L11.6738 7.25977C12.2124 5.37772 13.945 4 16 4Z" fill="#F85057"/>
</svg>
