<svg preserveAspectRatio="none" width="100%" height="100%" overflow="visible" style="display: block;" viewBox="0 0 12 16" fill="none" xmlns="http://www.w3.org/2000/svg">
<path id="Union" d="M2 7.5C2 9.70914 3.79086 11.5 6 11.5C8.20914 11.5 10 9.70914 10 7.5V7H12V7.5C12 10.4729 9.83755 12.9388 7 13.415V16H5V13.415C2.16245 12.9388 7.2249e-08 10.4729 0 7.5V7H2V7.5ZM6 0C7.38071 5.0294e-09 8.5 1.11929 8.5 2.5V7.5C8.5 8.88071 7.38071 10 6 10C4.61929 10 3.5 8.88071 3.5 7.5V2.5C3.5 1.11929 4.61929 -5.0294e-09 6 0ZM6 2C5.72386 2 5.5 2.22386 5.5 2.5V7.5C5.5 7.77614 5.72386 8 6 8C6.27614 8 6.5 7.77614 6.5 7.5V2.5C6.5 2.22386 6.27614 2 6 2Z" fill="var(--fill-0, black)"/>
</svg>
