<svg width="20" height="20" viewBox="0 0 20 20" fill="none" xmlns="http://www.w3.org/2000/svg">
<path d="M10 18C11.1111 18 12.1517 17.789 13.1218 17.3671C14.0924 16.9446 14.9369 16.3739 15.6551 15.6551C16.3739 14.9369 16.9446 14.0924 17.3671 13.1218C17.789 12.1517 18 11.1111 18 10C18 8.88889 17.789 7.848 17.3671 6.87733C16.9446 5.90726 16.3739 5.06281 15.6551 4.344C14.9369 3.62578 14.0924 3.05541 13.1218 2.63289C12.1517 2.21096 11.1111 2 10 2V3.77778C11.7333 3.77778 13.2036 4.38133 14.4107 5.58844C15.6184 6.79615 16.2222 8.26667 16.2222 10C16.2222 11.7333 15.6184 13.2036 14.4107 14.4107C13.2036 15.6184 11.7333 16.2222 10 16.2222V18ZM6.44444 14.4444L7.68889 13.1778L5.4 10.8889H12.6667V9.11111H5.4L7.68889 6.8L6.44444 5.55556L2.70711 9.29289C2.31658 9.68342 2.31658 10.3166 2.70711 10.7071L6.44444 14.4444Z" fill="#989BA2"/>
</svg>
