<svg width="20" height="20" viewBox="0 0 20 20" fill="none" xmlns="http://www.w3.org/2000/svg">
<circle cx="10" cy="10" r="6" stroke="black" stroke-width="2"/>
<path d="M11.25 18H8.75V16.5H11.25V18ZM11.25 3.5H8.75V2H11.25V3.5Z" fill="black"/>
<path d="M2 10.75V8.25H3.5V10.75H2ZM16.5 10.75V8.25H18V10.75H16.5Z" fill="black"/>
<path d="M5.22485 16.5392L3.45709 14.7714L4.51775 13.7108L6.28551 15.4785L5.22485 16.5392ZM15.4793 6.28615L13.7115 4.51838L14.7722 3.45772L16.5399 5.22549L15.4793 6.28615Z" fill="black"/>
<path d="M3.81237 4.87134L5.58013 3.10357L6.64079 4.16423L4.87303 5.932L3.81237 4.87134ZM14.0661 15.1251L15.8339 13.3573L16.8945 14.418L15.1268 16.1857L14.0661 15.1251Z" fill="black"/>
</svg>
