<svg preserveAspectRatio="none" width="100%" height="100%" overflow="visible" style="display: block;" viewBox="0 0 20 20" fill="none" xmlns="http://www.w3.org/2000/svg">
<g id="ic_text-underline">
<path id="Vector" d="M2.5 16.25H17.5V17.5H2.5V16.25Z" fill="var(--fill-0, #252525)"/>
<path id="Vector_2" d="M11.4062 14.375H5.625V3.125H10.9375C11.5639 3.12504 12.1771 3.30435 12.7048 3.64174C13.2325 3.97914 13.6526 4.46052 13.9155 5.02903C14.1784 5.59754 14.2731 6.22942 14.1884 6.85001C14.1037 7.47061 13.8431 8.05399 13.4375 8.53125C13.9673 8.95497 14.3528 9.53251 14.5408 10.1844C14.7289 10.8362 14.7102 11.5303 14.4875 12.1711C14.2647 12.8119 13.8488 13.3679 13.297 13.7626C12.7452 14.1573 12.0847 14.3713 11.4062 14.375ZM7.5 12.5H11.3937C11.5784 12.5 11.7613 12.4636 11.9319 12.393C12.1025 12.3223 12.2575 12.2187 12.3881 12.0881C12.5187 11.9575 12.6223 11.8025 12.693 11.6319C12.7636 11.4613 12.8 11.2784 12.8 11.0938C12.8 10.9091 12.7636 10.7262 12.693 10.5556C12.6223 10.385 12.5187 10.23 12.3881 10.0994C12.2575 9.9688 12.1025 9.86521 11.9319 9.79454C11.7613 9.72387 11.5784 9.6875 11.3937 9.6875H7.5V12.5ZM7.5 7.8125H10.9375C11.1222 7.8125 11.305 7.77613 11.4756 7.70546C11.6463 7.63478 11.8013 7.5312 11.9319 7.40062C12.0625 7.27004 12.166 7.11501 12.2367 6.9444C12.3074 6.77378 12.3438 6.59092 12.3438 6.40625C12.3438 6.22158 12.3074 6.03872 12.2367 5.8681C12.166 5.69749 12.0625 5.54246 11.9319 5.41188C11.8013 5.2813 11.6463 5.17772 11.4756 5.10704C11.305 5.03637 11.1222 5 10.9375 5H7.5V7.8125Z" fill="var(--fill-0, #252525)"/>
</g>
</svg>
