<svg preserveAspectRatio="none" width="100%" height="100%" overflow="visible" style="display: block;" viewBox="0 0 17 14" fill="none" xmlns="http://www.w3.org/2000/svg">
<g id="Group 210">
<rect id="Rectangle 150" x="6.52148" y="4.75" width="3" height="8.5" stroke="var(--stroke-0, #252525)" stroke-width="1.5"/>
<rect id="Rectangle 151" x="0.771484" y="8.75" width="3" height="4.5" stroke="var(--stroke-0, #252525)" stroke-width="1.5"/>
<rect id="Rectangle 152" x="12.2715" y="0.75" width="3" height="12.5" stroke="var(--stroke-0, #252525)" stroke-width="1.5"/>
<path id="Union" d="M3.03418 0.881836C3.22366 0.929023 3.40501 0.995754 3.57715 1.08496C3.9484 1.27288 4.22977 1.53814 4.41113 1.88086L4.50098 2.0498L4.33594 2.14648L3.51758 2.62695L3.33984 2.73145L3.24121 2.55078C3.15823 2.39885 3.03902 2.28586 2.87891 2.20898C2.70984 2.12791 2.52525 2.08597 2.32324 2.08594C2.08834 2.08594 1.92761 2.12673 1.82422 2.1875L1.82031 2.18945C1.77203 2.21637 1.74578 2.24452 1.73047 2.26953C1.71555 2.29399 1.70514 2.32628 1.70508 2.37305C1.70508 2.45282 1.73249 2.50825 1.79883 2.55664C1.86334 2.60366 1.97354 2.65604 2.13965 2.70898L2.32422 2.76172L2.8877 2.91016H2.88867C3.40763 3.04508 3.81372 3.23803 4.08008 3.50391C4.35265 3.77606 4.48427 4.12698 4.48438 4.53809C4.48438 5.04465 4.29527 5.46014 3.91504 5.7627C3.67729 5.95429 3.38113 6.07803 3.03418 6.14355V7H1.53418V6.0918C1.37391 6.04871 1.22005 5.99331 1.07324 5.92383L1.07129 5.92285C0.67797 5.73175 0.359185 5.45568 0.118164 5.09668L0 4.9209L0.182617 4.8125L1.00781 4.32617L1.16895 4.23047L1.27441 4.38477C1.39087 4.5542 1.54354 4.68486 1.73438 4.77832C1.92416 4.8667 2.14468 4.91404 2.40039 4.91406C2.66828 4.91406 2.83546 4.87026 2.92969 4.81152C3.00806 4.7626 3.04687 4.69754 3.04688 4.58594C3.04688 4.48925 3.01546 4.43114 2.95703 4.38672C2.87877 4.3273 2.70591 4.25382 2.40723 4.17773L2.40625 4.17676L1.8418 4.02832C1.35409 3.89904 0.965217 3.70572 0.697266 3.43457C0.424289 3.1583 0.289062 2.81333 0.289062 2.41406C0.289065 1.97695 0.434296 1.61119 0.727539 1.33301L0.862305 1.21875C1.05516 1.07299 1.28014 0.96724 1.53418 0.898438V0H3.03418V0.881836ZM1.58984 2.12207C1.58579 2.12695 1.58286 2.13266 1.5791 2.1377C1.59345 2.1185 1.60938 2.10001 1.62793 2.08301L1.58984 2.12207Z" fill="var(--fill-0, #252525)"/>
</g>
</svg>
