<svg preserveAspectRatio="none" width="100%" height="100%" overflow="visible" style="display: block;" viewBox="0 0 16 16" fill="none" xmlns="http://www.w3.org/2000/svg">
<path id="Union" d="M8.23145 0.00585938C10.6092 0.126322 12.5 2.09234 12.5 4.5L12.4941 4.73145C12.4516 5.57124 12.1775 6.34939 11.7363 7.00586C14.1118 7.12876 16 9.09399 16 11.5L15.9941 11.7314C15.8737 14.1092 13.9077 16 11.5 16L11.2686 15.9941C9.94874 15.9273 8.77967 15.2912 8 14.3271C7.17504 15.3472 5.91406 16 4.5 16C2.01472 16 0 13.9853 0 11.5C0 9.09431 1.88772 7.12924 4.2627 7.00586C3.82173 6.34949 3.5484 5.57105 3.50586 4.73145L3.5 4.5C3.5 2.01472 5.51472 0 8 0L8.23145 0.00585938ZM11.5 9C10.1193 9 9 10.1193 9 11.5C9 12.8807 10.1193 14 11.5 14C12.8807 14 14 12.8807 14 11.5C14 10.1193 12.8807 9 11.5 9ZM4.5 9C3.11929 9 2 10.1193 2 11.5C2 12.8807 3.11929 14 4.5 14C5.88071 14 7 12.8807 7 11.5C7 10.1193 5.88071 9 4.5 9ZM8 2C6.61929 2 5.5 3.11929 5.5 4.5C5.5 5.88071 6.61929 7 8 7C9.38071 7 10.5 5.88071 10.5 4.5C10.5 3.11929 9.38071 2 8 2Z" fill="var(--fill-0, white)"/>
</svg>
